<?xml version="1.0" encoding="UTF-8" standalone="no"?>
<svg
   width="91"
   height="64"
   viewBox="0 0 91 64"
   fill="none"
   version="1.1"
   id="svg1"
   sodipodi:docname="play_icon.svg"
   xml:space="preserve"
   inkscape:version="1.3.2 (091e20e, 2023-11-25, custom)"
   xmlns:inkscape="http://www.inkscape.org/namespaces/inkscape"
   xmlns:sodipodi="http://sodipodi.sourceforge.net/DTD/sodipodi-0.dtd"
   xmlns="http://www.w3.org/2000/svg"
   xmlns:svg="http://www.w3.org/2000/svg"><defs
     id="defs1" /><sodipodi:namedview
     id="namedview1"
     pagecolor="#ffffff"
     bordercolor="#000000"
     borderopacity="0.25"
     inkscape:showpageshadow="2"
     inkscape:pageopacity="0.0"
     inkscape:pagecheckerboard="0"
     inkscape:deskcolor="#d1d1d1"
     inkscape:zoom="5.3351648"
     inkscape:cx="12.46447"
     inkscape:cy="37.76828"
     inkscape:window-width="1920"
     inkscape:window-height="1009"
     inkscape:window-x="1912"
     inkscape:window-y="-8"
     inkscape:window-maximized="1"
     inkscape:current-layer="svg1" /><path
     d="M88.3221 10.0341C87.8126 8.10524 86.8085 6.34482 85.4103 4.92905C84.0121 3.51327 82.2688 2.49179 80.355 1.96685C73.3095 0.0607912 45.1481 0.060791 45.1481 0.060791C45.1481 0.060791 16.9867 0.0607912 9.94122 1.96685C8.02734 2.49179 6.28407 3.51327 4.88587 4.92905C3.48767 6.34482 2.48358 8.10524 1.9741 10.0341C0.089844 17.1535 0.0898438 32.0002 0.0898438 32.0002C0.0898438 32.0002 0.089844 46.8469 1.9741 53.9662C2.48358 55.8951 3.48767 57.6555 4.88587 59.0713C6.28407 60.4871 8.02734 61.5086 9.94122 62.0335C16.9867 63.9396 45.1481 63.9396 45.1481 63.9396C45.1481 63.9396 73.3095 63.9396 80.355 62.0335C82.2688 61.5086 84.0121 60.4871 85.4103 59.0713C86.8085 57.6555 87.8126 55.8951 88.3221 53.9662C90.2064 46.8469 90.2063 32.0002 90.2063 32.0002C90.2063 32.0002 90.2064 17.1535 88.3221 10.0341Z"
     fill="#FF0302"
     id="path1" /><g
     style="fill:none"
     id="g1"
     transform="translate(32.79178,18.00494)"><path
       d="M 0.931641,27.4812 V 0.518188 L 24.4848,13.9997 Z"
       fill="#ffffff"
       id="path1-3" /></g></svg>
