<svg width="528" height="25" viewBox="0 0 528 25" fill="none" xmlns="http://www.w3.org/2000/svg">
<path fill-rule="evenodd" clip-rule="evenodd" d="M233.107 12.5L228.281 7.67471L223.456 12.5L228.281 17.3253L233.107 12.5ZM234.521 0.0209961L228.281 6.2605L222.042 0.0209961L210.063 12H0V13H210.063L222.042 24.979L228.281 18.7395L234.521 24.979L247 12.5L234.521 0.0209961ZM222 13H211.477L222.042 23.5648L227.574 18.0324L222.042 12.5L227.574 6.96761L222.042 1.43521L211.477 12H222V13ZM234.521 1.43521L228.989 6.96761L234.521 12.5L228.989 18.0324L234.521 23.5648L245.586 12.5L234.521 1.43521ZM265.479 8.39322L269.586 12.5L265.479 16.6068L261.372 12.5L265.479 8.39322ZM259.958 12.5L265.479 6.979L271 12.5L265.479 18.021L259.958 12.5ZM305.958 1.43521L300.426 6.96761L305.958 12.5L300.426 18.0324L305.958 23.5648L316.523 13H306V12H316.523L305.958 1.43521ZM317.937 12L305.958 0.0209961L299.719 6.2605L293.479 0.0209961L281 12.5L293.479 24.979L299.719 18.7395L305.958 24.979L317.937 13H528V12H317.937ZM293.479 1.43521L299.011 6.96761L293.479 12.5L299.011 18.0324L293.479 23.5648L282.414 12.5L293.479 1.43521ZM294.893 12.5L299.719 17.3253L304.544 12.5L299.719 7.67472L294.893 12.5Z" fill="url(#paint0_linear_2050_477)"/>
<defs>
<linearGradient id="paint0_linear_2050_477" x1="0" y1="12.5" x2="528" y2="12.5" gradientUnits="userSpaceOnUse">
<stop stop-color="white"/>
<stop offset="0.47" stop-color="#C89532"/>
<stop offset="1" stop-color="white"/>
</linearGradient>
</defs>
</svg>
