<svg width="21" height="20" viewBox="0 0 21 20" fill="none" xmlns="http://www.w3.org/2000/svg">
<path d="M10.5 13C12.1569 13 13.5 11.6569 13.5 10C13.5 8.34315 12.1569 7 10.5 7C8.84315 7 7.5 8.34315 7.5 10C7.5 11.6569 8.84315 13 10.5 13Z" fill="#1E1F27"/>
<path fill-rule="evenodd" clip-rule="evenodd" d="M4.5 0C2.29086 0 0.5 1.79086 0.5 4V16C0.5 18.2091 2.29086 20 4.5 20H16.5C18.7091 20 20.5 18.2091 20.5 16V4C20.5 1.79086 18.7091 0 16.5 0H4.5ZM10.5 15C13.2614 15 15.5 12.7614 15.5 10C15.5 7.23858 13.2614 5 10.5 5C7.73858 5 5.5 7.23858 5.5 10C5.5 12.7614 7.73858 15 10.5 15ZM16.5 4C16.5 4.55228 16.0523 5 15.5 5C14.9477 5 14.5 4.55228 14.5 4C14.5 3.44772 14.9477 3 15.5 3C16.0523 3 16.5 3.44772 16.5 4Z" fill="#1E1F27"/>
</svg>
