<svg width="21" height="16" viewBox="0 0 21 16" fill="none" xmlns="http://www.w3.org/2000/svg">
<path d="M20.3008 4C20.3008 4 20.1055 2.62109 19.5039 2.01562C18.7422 1.21875 17.8906 1.21484 17.5 1.16797C14.7031 0.964844 10.5039 0.964844 10.5039 0.964844H10.4961C10.4961 0.964844 6.29688 0.964844 3.5 1.16797C3.10938 1.21484 2.25781 1.21875 1.49609 2.01562C0.894531 2.62109 0.703125 4 0.703125 4C0.703125 4 0.5 5.62109 0.5 7.23828V8.75391C0.5 10.3711 0.699219 11.9922 0.699219 11.9922C0.699219 11.9922 0.894531 13.3711 1.49219 13.9766C2.25391 14.7734 3.25391 14.7461 3.69922 14.832C5.30078 14.9844 10.5 15.0312 10.5 15.0312C10.5 15.0312 14.7031 15.0234 17.5 14.8242C17.8906 14.7773 18.7422 14.7734 19.5039 13.9766C20.1055 13.3711 20.3008 11.9922 20.3008 11.9922C20.3008 11.9922 20.5 10.375 20.5 8.75391V7.23828C20.5 5.62109 20.3008 4 20.3008 4ZM8.43359 10.5938V4.97266L13.8359 7.79297L8.43359 10.5938Z" fill="#1E1F27"/>
</svg>
